subject01_walk1_RRA_states
nRows=5
nColumns=47

# SIMM Motion File Header:
name subject01_walk1_RRA_states
datacolumns 47
datarows 5
otherdata 1
range 0.86900000000000011000 0.87100000000000011000
endheader
time	pelvis_tx	pelvis_ty	pelvis_tz	pelvis_tilt	pelvis_list	pelvis_rotation	hip_flexion_r	hip_adduction_r	hip_rotation_r	knee_angle_r	ankle_angle_r	subtalar_angle_r	mtp_angle_r	hip_flexion_l	hip_adduction_l	hip_rotation_l	knee_angle_l	ankle_angle_l	subtalar_angle_l	mtp_angle_l	lumbar_extension	lumbar_bending	lumbar_rotation	pelvis_tx_u	pelvis_ty_u	pelvis_tz_u	pelvis_tilt_u	pelvis_list_u	pelvis_rotation_u	hip_flexion_r_u	hip_adduction_r_u	hip_rotation_r_u	knee_angle_r_u	ankle_angle_r_u	subtalar_angle_r_u	mtp_angle_r_u	hip_flexion_l_u	hip_adduction_l_u	hip_rotation_l_u	knee_angle_l_u	ankle_angle_l_u	subtalar_angle_l_u	mtp_angle_l_u	lumbar_extension_u	lumbar_bending_u	lumbar_rotation_u
      0.86900000000000011000	      0.60445737807401134000	      1.02930069944000800000	      0.03264159228656729500	      4.96546925889740190000	     -1.86060864077006080000	      3.26202407115918060000	     10.05638728236806000000	      2.27119616679075610000	     -7.18167241016311570000	    -20.44230006833409900000	      5.32669581007507900000	      0.01996590557778655700	      0.05079581965267580100	      5.02294738359205530000	     -7.15277861763462930000	     -4.20985847087551070000	    -66.88067230967209300000	     -5.80263645676567830000	      0.01782588173090513000	     -0.08698587184783446200	    -15.30436627598331300000	      5.01691695291540360000	     -3.75856345057390010000	     -0.04447190566573987200	      0.18716966335330829000	      0.18767665957601781000	      5.08237417285441410000	     -1.83441154207594350000	    -11.48115942795292600000	   -109.72589798526555000000	     23.98355847630433100000	     13.15328950514015800000	     73.89310754034902100000	     21.71536441495716500000	      0.26928103916781942000	     -0.45161711331565524000	    142.76491261445327000000	    -16.06413320885642500000	    -20.82358856307481800000	   -113.50483477342920000000	     75.06976050835724800000	     -0.05731065616933010000	      0.20125242457555326000	     -4.45549234838357580000	     -6.72795825524998570000	     38.46604388993999600000
      0.86950000000000005000	      0.60443505302760892000	      1.02939427013872290000	      0.03273526899054597600	      4.96800384194634150000	     -1.86143547293817440000	      3.25624599221961520000	     10.00151304550933100000	      2.28307942183044110000	     -7.17501501585702870000	    -20.40529847516213000000	      5.33751900891829580000	      0.02010099351923508300	      0.05056901622688788500	      5.09423387644096960000	     -7.16058537711610830000	     -4.22012524859994540000	    -66.93700505310683000000	     -5.76490533143176180000	      0.01779711870288238800	     -0.08688466226577379300	    -15.30659999672539200000	      5.01345268651543300000	     -3.73932609901094850000	     -0.04482845125762278900	      0.18711165015580747000	      0.18702971661229936000	      5.05586531630887400000	     -1.47306028841333610000	    -11.63121019701254400000	   -109.77071361949864000000	     23.54947726332005700000	     13.47625176579788500000	     74.11270018015940800000	     21.57783186374604200000	      0.27089978964008954000	     -0.45524888132773050000	    142.38141523673502000000	    -15.16297764386324700000	    -20.24391565318852300000	   -111.82675212758565000000	     75.85198736400660400000	     -0.05772730954976706300	      0.20357127859623797000	     -4.47931888863560970000	     -7.12885159651611120000	     38.48326329324905300000
      0.87000000000000011000	      0.60441254944330558000	      1.02948780960830200000	      0.03282862156814261200	      4.97052502863089000000	     -1.86208184904410400000	      3.25039280281170620000	      9.94661691604085090000	      2.29474566376210070000	     -7.16819617573767240000	    -20.36818795916931900000	      5.34827427200032530000	      0.02023677317281405800	      0.05034055280335315900	      5.16532915817080870000	     -7.16794167486640710000	     -4.23010277864855410000	    -66.99249967280663000000	     -5.72678723479566190000	      0.01776815607461262900	     -0.08678230556321105100	    -15.30884552098369500000	      5.00978836165029230000	     -3.72008028118480680000	     -0.04518607149869565500	      0.18704474457731629000	      0.18638016125616433000	      5.02878320078451410000	     -1.11259551269438630000	    -11.78160865094597700000	   -109.81344804273196000000	     23.11551128336134300000	     13.79910668919868000000	     74.32875409466252800000	     21.44405467426872400000	      0.27237981619533264000	     -0.45894167005245551000	    142.00007408516515000000	    -14.26229816192472700000	    -19.66659493711009400000	   -110.15233735242175000000	     76.61762075301224700000	     -0.05813483936414360500	      0.20586011155681441000	     -4.50270204365604170000	     -7.52818419544766830000	     38.49991776506829700000
      0.87050000000000005000	      0.60438986677079376000	      1.02958131340656970000	      0.03292164873946903200	      4.97303253055067620000	     -1.86254823001641450000	      3.24446432663389390000	      9.89169995056388100000	      2.30619497279907380000	     -7.16121593290782330000	    -20.33097033224980500000	      5.35896375050269750000	      0.02037319746556455800	      0.05010994658815140500	      5.23623431279737780000	     -7.17484778555410680000	     -4.23979224903530750000	    -67.04715800777808000000	     -5.68829047817686460000	      0.01773898752810697300	     -0.08667880699338527400	    -15.31110262590383900000	      5.00592477469074740000	     -3.70082627167900520000	     -0.04554480165355896700	      0.18696897745890900000	      0.18572812979238340000	      5.00113373332176090000	     -0.75309873153770579000	    -11.93234753968714100000	   -109.85406633158026000000	     22.68178047999043300000	     14.12181666154079500000	     74.54114813273204700000	     21.31437553322248100000	      0.27286104652263554000	     -0.46335803744299198000	    141.62090674141569000000	    -13.36227891545199100000	    -19.09170667521949500000	   -108.48162830508684000000	     77.36664804347407200000	     -0.05852120128963728100	      0.20811986367645408000	     -4.52564795089640980000	     -7.92588378425636190000	     38.51602818477988400000
      0.87100000000000011000	      0.60436700445822589000	      1.02967477710782360000	      0.03301434929354205700	      4.97552606970153910000	     -1.86283511360405570000	      3.23846040455973890000	      9.83676319600400540000	      2.31742748628445930000	     -7.15407440005366000000	    -20.29364740450756000000	      5.36958927161959740000	      0.02050960050781228500	      0.04987718125370173300	      5.30695042870252380000	     -7.18130408197647710000	     -4.24919489801758670000	    -67.10098192353632400000	     -5.64942335716105770000	      0.01770963646674855400	     -0.08657419061203354400	    -15.31337109691814300000	      5.00186275365679740000	     -3.68156434721863280000	     -0.04590463046032904800	      0.18688434165171655000	      0.18507366989922058000	      4.97292851532910340000	     -0.39459559169024966000	    -12.08338956445858000000	   -109.89260921590201000000	     22.24829905910386100000	     14.44427890342597500000	     74.74998841315583300000	     21.18841913123599200000	      0.27319835051435326000	     -0.46781390304349291000	    141.24392232376303000000	    -12.46302750966372100000	    -18.51929416163055800000	   -106.81465563028148000000	     78.09905181953759300000	     -0.05889876720586502400	      0.21035008801516678000	     -4.54816171115751010000	     -8.32192976852001290000	     38.53157189235744100000
